<mxfile host="app.diagrams.net" modified="2024-01-09T08:24:56.109Z" agent="Mozilla/5.0 (Macintosh; Intel Mac OS X 10_15_7) AppleWebKit/537.36 (KHTML, like Gecko) Chrome/120.0.0.0 Safari/537.36" etag="9xUSZXO_8jz1SgqhNIxl" version="21.6.6" type="github">
  <diagram name="Page-1" id="t0wirQSe8Ndwz_d9o5BJ">
    <mxGraphModel dx="658" dy="418" grid="1" gridSize="10" guides="1" tooltips="1" connect="1" arrows="1" fold="1" page="1" pageScale="1" pageWidth="827" pageHeight="1169" math="0" shadow="0">
      <root>
        <mxCell id="0" />
        <mxCell id="1" parent="0" />
        <mxCell id="t5gcVrF-W7fBeW5LNrVJ-37" value="" style="rounded=0;whiteSpace=wrap;html=1;fillColor=#FAFAFA;" parent="1" vertex="1">
          <mxGeometry x="20" y="80" width="690" height="550" as="geometry" />
        </mxCell>
        <mxCell id="LVUbIvGB1ecaTfpnunjM-25" style="edgeStyle=orthogonalEdgeStyle;rounded=0;orthogonalLoop=1;jettySize=auto;html=1;" parent="1" source="t5gcVrF-W7fBeW5LNrVJ-4" target="LVUbIvGB1ecaTfpnunjM-4" edge="1">
          <mxGeometry relative="1" as="geometry" />
        </mxCell>
        <mxCell id="LVUbIvGB1ecaTfpnunjM-27" value="&lt;font style=&quot;font-size: 15px;&quot;&gt;0 Task&lt;/font&gt;" style="edgeLabel;html=1;align=center;verticalAlign=middle;resizable=0;points=[];" parent="LVUbIvGB1ecaTfpnunjM-25" vertex="1" connectable="0">
          <mxGeometry x="-0.1972" y="-2" relative="1" as="geometry">
            <mxPoint x="15" y="-3" as="offset" />
          </mxGeometry>
        </mxCell>
        <mxCell id="t5gcVrF-W7fBeW5LNrVJ-4" value="Task Queue" style="sketch=0;points=[[0,0,0],[0.25,0,0],[0.5,0,0],[0.75,0,0],[1,0,0],[0,1,0],[0.25,1,0],[0.5,1,0],[0.75,1,0],[1,1,0],[0,0.25,0],[0,0.5,0],[0,0.75,0],[1,0.25,0],[1,0.5,0],[1,0.75,0]];outlineConnect=0;fontColor=#232F3E;gradientColor=#FF4F8B;gradientDirection=north;fillColor=#BC1356;strokeColor=#ffffff;dashed=0;verticalLabelPosition=bottom;verticalAlign=top;align=center;html=1;fontSize=12;fontStyle=0;aspect=fixed;shape=mxgraph.aws4.resourceIcon;resIcon=mxgraph.aws4.sqs;" parent="1" vertex="1">
          <mxGeometry x="50" y="306" width="78" height="78" as="geometry" />
        </mxCell>
        <mxCell id="t5gcVrF-W7fBeW5LNrVJ-9" value="Task Table" style="sketch=0;points=[[0,0,0],[0.25,0,0],[0.5,0,0],[0.75,0,0],[1,0,0],[0,1,0],[0.25,1,0],[0.5,1,0],[0.75,1,0],[1,1,0],[0,0.25,0],[0,0.5,0],[0,0.75,0],[1,0.25,0],[1,0.5,0],[1,0.75,0]];outlineConnect=0;fontColor=#232F3E;gradientColor=#4D72F3;gradientDirection=north;fillColor=#3334B9;strokeColor=#ffffff;dashed=0;verticalLabelPosition=bottom;verticalAlign=top;align=center;html=1;fontSize=12;fontStyle=0;aspect=fixed;shape=mxgraph.aws4.resourceIcon;resIcon=mxgraph.aws4.dynamodb;" parent="1" vertex="1">
          <mxGeometry x="361" y="533" width="78" height="78" as="geometry" />
        </mxCell>
        <mxCell id="t5gcVrF-W7fBeW5LNrVJ-11" value="Exported File(JSON/ISHNE)" style="sketch=0;points=[[0,0,0],[0.25,0,0],[0.5,0,0],[0.75,0,0],[1,0,0],[0,1,0],[0.25,1,0],[0.5,1,0],[0.75,1,0],[1,1,0],[0,0.25,0],[0,0.5,0],[0,0.75,0],[1,0.25,0],[1,0.5,0],[1,0.75,0]];outlineConnect=0;fontColor=#232F3E;gradientColor=#60A337;gradientDirection=north;fillColor=#277116;strokeColor=#ffffff;dashed=0;verticalLabelPosition=bottom;verticalAlign=top;align=center;html=1;fontSize=12;fontStyle=0;aspect=fixed;shape=mxgraph.aws4.resourceIcon;resIcon=mxgraph.aws4.s3;" parent="1" vertex="1">
          <mxGeometry x="361" y="80" width="78" height="78" as="geometry" />
        </mxCell>
        <object placeholders="1" c4Name="Task Listener(Worker)" c4Type="ContainerScopeBoundary" c4Application="Container" label="&lt;font style=&quot;font-size: 16px&quot;&gt;&lt;b&gt;&lt;div style=&quot;text-align: left&quot;&gt;%c4Name%&lt;/div&gt;&lt;/b&gt;&lt;/font&gt;&lt;div style=&quot;text-align: left&quot;&gt;[%c4Application%]&lt;/div&gt;" id="t5gcVrF-W7fBeW5LNrVJ-5">
          <mxCell style="rounded=1;fontSize=11;whiteSpace=wrap;html=1;dashed=1;arcSize=20;fillColor=none;strokeColor=#666666;fontColor=#333333;labelBackgroundColor=none;align=left;verticalAlign=bottom;labelBorderColor=none;spacingTop=0;spacing=10;dashPattern=8 4;metaEdit=1;rotatable=0;perimeter=rectanglePerimeter;noLabel=0;labelPadding=0;allowArrows=0;connectable=0;expand=0;recursiveResize=0;editable=1;pointerEvents=0;absoluteArcSize=1;points=[[0.25,0,0],[0.5,0,0],[0.75,0,0],[1,0.25,0],[1,0.5,0],[1,0.75,0],[0.75,1,0],[0.5,1,0],[0.25,1,0],[0,0.75,0],[0,0.5,0],[0,0.25,0]];" parent="1" vertex="1">
            <mxGeometry x="170" y="210" width="520" height="300" as="geometry" />
          </mxCell>
        </object>
        <mxCell id="t5gcVrF-W7fBeW5LNrVJ-6" value="" style="sketch=0;points=[[0,0,0],[0.25,0,0],[0.5,0,0],[0.75,0,0],[1,0,0],[0,1,0],[0.25,1,0],[0.5,1,0],[0.75,1,0],[1,1,0],[0,0.25,0],[0,0.5,0],[0,0.75,0],[1,0.25,0],[1,0.5,0],[1,0.75,0]];outlineConnect=0;fontColor=#232F3E;gradientColor=#F78E04;gradientDirection=north;fillColor=#D05C17;strokeColor=#ffffff;dashed=0;verticalLabelPosition=bottom;verticalAlign=top;align=center;html=1;fontSize=12;fontStyle=0;aspect=fixed;shape=mxgraph.aws4.resourceIcon;resIcon=mxgraph.aws4.lambda;container=0;" parent="1" vertex="1">
          <mxGeometry x="170" y="210" width="78" height="78" as="geometry" />
        </mxCell>
        <mxCell id="LVUbIvGB1ecaTfpnunjM-3" value="&lt;pre style=&quot;background-color: rgb(255, 255, 255);&quot;&gt;&lt;font face=&quot;Helvetica&quot; style=&quot;font-size: 12px;&quot;&gt;VitalQueryServiceImpl.java&lt;/font&gt;&lt;/pre&gt;" style="rounded=1;whiteSpace=wrap;html=1;" parent="1" vertex="1">
          <mxGeometry x="500" y="439" width="160" height="60" as="geometry" />
        </mxCell>
        <mxCell id="LVUbIvGB1ecaTfpnunjM-17" value="" style="group" parent="1" vertex="1" connectable="0">
          <mxGeometry x="270" y="290" width="260" height="130" as="geometry" />
        </mxCell>
        <mxCell id="LVUbIvGB1ecaTfpnunjM-4" value="1. Data Event Query&lt;br&gt;2.Write Data Event to Local File(JSON/ISHNE)&lt;br&gt;3. Upload Generated Local File to S3&lt;br&gt;4. Update Task Table" style="rounded=1;whiteSpace=wrap;html=1;align=left;" parent="LVUbIvGB1ecaTfpnunjM-17" vertex="1">
          <mxGeometry width="260" height="110" as="geometry" />
        </mxCell>
        <mxCell id="LVUbIvGB1ecaTfpnunjM-10" value="FileExportTaskListener.java" style="text;html=1;strokeColor=none;fillColor=none;align=center;verticalAlign=middle;whiteSpace=wrap;rounded=0;" parent="LVUbIvGB1ecaTfpnunjM-17" vertex="1">
          <mxGeometry x="45" y="110" width="170" height="20" as="geometry" />
        </mxCell>
        <mxCell id="LVUbIvGB1ecaTfpnunjM-23" style="edgeStyle=orthogonalEdgeStyle;rounded=0;orthogonalLoop=1;jettySize=auto;html=1;exitX=0.5;exitY=0;exitDx=0;exitDy=0;" parent="1" source="LVUbIvGB1ecaTfpnunjM-4" target="t5gcVrF-W7fBeW5LNrVJ-11" edge="1">
          <mxGeometry relative="1" as="geometry" />
        </mxCell>
        <mxCell id="LVUbIvGB1ecaTfpnunjM-31" value="&lt;font style=&quot;font-size: 15px;&quot;&gt;3&lt;/font&gt;" style="edgeLabel;html=1;align=center;verticalAlign=middle;resizable=0;points=[];" parent="LVUbIvGB1ecaTfpnunjM-23" vertex="1" connectable="0">
          <mxGeometry x="-0.0758" y="-1" relative="1" as="geometry">
            <mxPoint x="-2" as="offset" />
          </mxGeometry>
        </mxCell>
        <mxCell id="LVUbIvGB1ecaTfpnunjM-24" style="edgeStyle=orthogonalEdgeStyle;rounded=0;orthogonalLoop=1;jettySize=auto;html=1;exitX=0.5;exitY=1;exitDx=0;exitDy=0;entryX=0.5;entryY=0;entryDx=0;entryDy=0;entryPerimeter=0;" parent="1" source="LVUbIvGB1ecaTfpnunjM-10" target="t5gcVrF-W7fBeW5LNrVJ-9" edge="1">
          <mxGeometry relative="1" as="geometry" />
        </mxCell>
        <mxCell id="LVUbIvGB1ecaTfpnunjM-32" value="&lt;font style=&quot;font-size: 15px;&quot;&gt;4&lt;/font&gt;" style="edgeLabel;html=1;align=center;verticalAlign=middle;resizable=0;points=[];" parent="LVUbIvGB1ecaTfpnunjM-24" vertex="1" connectable="0">
          <mxGeometry x="0.0265" relative="1" as="geometry">
            <mxPoint x="-2" as="offset" />
          </mxGeometry>
        </mxCell>
        <mxCell id="LVUbIvGB1ecaTfpnunjM-26" style="edgeStyle=orthogonalEdgeStyle;rounded=0;orthogonalLoop=1;jettySize=auto;html=1;exitX=1;exitY=0.5;exitDx=0;exitDy=0;entryX=0.5;entryY=0;entryDx=0;entryDy=0;" parent="1" source="LVUbIvGB1ecaTfpnunjM-4" target="LVUbIvGB1ecaTfpnunjM-3" edge="1">
          <mxGeometry relative="1" as="geometry" />
        </mxCell>
        <mxCell id="LVUbIvGB1ecaTfpnunjM-35" value="&lt;font style=&quot;font-size: 15px;&quot;&gt;1&lt;/font&gt;" style="edgeLabel;html=1;align=center;verticalAlign=middle;resizable=0;points=[];" parent="LVUbIvGB1ecaTfpnunjM-26" vertex="1" connectable="0">
          <mxGeometry x="0.0081" y="-1" relative="1" as="geometry">
            <mxPoint x="1" y="23" as="offset" />
          </mxGeometry>
        </mxCell>
        <mxCell id="LVUbIvGB1ecaTfpnunjM-28" value="Local File(JSON/ISHNE)" style="image;html=1;image=img/lib/clip_art/general/Full_Folder_128x128.png" parent="1" vertex="1">
          <mxGeometry x="580" y="210" width="80" height="80" as="geometry" />
        </mxCell>
        <mxCell id="LVUbIvGB1ecaTfpnunjM-30" value="&lt;font style=&quot;font-size: 15px;&quot;&gt;2&lt;/font&gt;" style="edgeStyle=orthogonalEdgeStyle;rounded=0;orthogonalLoop=1;jettySize=auto;html=1;exitX=1;exitY=0.5;exitDx=0;exitDy=0;" parent="1" source="LVUbIvGB1ecaTfpnunjM-4" target="LVUbIvGB1ecaTfpnunjM-28" edge="1">
          <mxGeometry x="0.242" relative="1" as="geometry">
            <Array as="points">
              <mxPoint x="550" y="345" />
              <mxPoint x="550" y="250" />
            </Array>
            <mxPoint as="offset" />
          </mxGeometry>
        </mxCell>
      </root>
    </mxGraphModel>
  </diagram>
</mxfile>
